# xmcd
#
# Track frame offsets:
#	150
#	7996
#	20466
#	30310
#	42857
#	53657
#	67128
#	81153
#	92687
#	106111
#	128101
#	140544
#	148822
#	166293
#	180202
#	196146
#	208943
#	231280
#	244290
#	258271
#	270177
#	290414
#	300046
#	315185
#	335223
#
# Disc length: 4590 seconds
#
# Revision: 1
# Processed by: cddbd v1.5.2PL0 Copyright (c) Steve Scherf et al.
# Submitted via: audiograbber 1.83.01
#
DISCID=4d11ec19
DTITLE=Various  - Rock 'n' Roll is in my soul
DYEAR=2008
DGENRE=Rock
TTITLE0=The Spookshow - Follow me darkness
TTITLE1=Francine - She Bop
TTITLE2=Turbonegra - Denim Demon
TTITLE3=Johnny Rocket - Who's your daddy?
TTITLE4=Big John Bates - Mystiki
TTITLE5=Ahead to the sea - Bophal
TTITLE6=Thee exit wounds - Evil
TTITLE7=Mr. Bubble B. - Ain't too old for Rock 'n' Roll
TTITLE8=The Booze Brothers - Casual Irony
TTITLE9=Sarah Blackwood - Train Wreck
TTITLE10=The Bullocks - She is dead
TTITLE11=Out of Luck - Explosions in my head
TTITLE12=The Clerks - Skatris
TTITLE13=Muff - Over and out
TTITLE14=Gutter Demons - Psych-o-Rama
TTITLE15=Helldriver - Herz
TTITLE16=The Dino Martinis - Madrugada
TTITLE17=The Heroines - Bastards never die
TTITLE18=The Buckshots - Black Moon
TTITLE19=Benuts - Chop off
TTITLE20=Attaque 77 - Ejercito de Salvacion
TTITLE21=The Ripmen - Crawfish
TTITLE22=Across the border - Die Nacht
TTITLE23=The Popzillas - We're through
TTITLE24=Sic Hanna and The creepy formula - Burn in hell
EXTD=
EXTT0=
EXTT1=
EXTT2=
EXTT3=
EXTT4=
EXTT5=
EXTT6=
EXTT7=
EXTT8=
EXTT9=
EXTT10=
EXTT11=
EXTT12=
EXTT13=
EXTT14=
EXTT15=
EXTT16=
EXTT17=
EXTT18=
EXTT19=
EXTT20=
EXTT21=
EXTT22=
EXTT23=
EXTT24=
PLAYORDER=
